<svg width="20" height="20" viewBox="0 0 20 20" fill="none" xmlns="http://www.w3.org/2000/svg">
<path d="M10.0003 5.00008C9.54199 5.00008 9.14963 4.83689 8.82324 4.5105C8.49685 4.18411 8.33366 3.79175 8.33366 3.33341C8.33366 2.87508 8.49685 2.48272 8.82324 2.15633C9.14963 1.82994 9.54199 1.66675 10.0003 1.66675C10.4587 1.66675 10.851 1.82994 11.1774 2.15633C11.5038 2.48272 11.667 2.87508 11.667 3.33341C11.667 3.79175 11.5038 4.18411 11.1774 4.5105C10.851 4.83689 10.4587 5.00008 10.0003 5.00008ZM14.167 18.3334V14.1667H10.0003C9.54199 14.1667 9.14963 14.0036 8.82324 13.6772C8.49685 13.3508 8.33366 12.9584 8.33366 12.5001V7.50008C8.33366 7.04175 8.49685 6.64939 8.82324 6.323C9.14963 5.99661 9.54199 5.83341 10.0003 5.83341C10.3337 5.83341 10.6219 5.90633 10.8649 6.05217C11.108 6.198 11.3684 6.43064 11.6462 6.75008C12.41 7.66675 13.101 8.29522 13.7191 8.6355C14.3371 8.97578 15.042 9.15286 15.8337 9.16675V10.8334C15.0975 10.8334 14.3545 10.6737 13.6045 10.3542C12.8545 10.0348 12.2087 9.65286 11.667 9.20841V12.0834H14.167C14.6253 12.0834 15.0177 12.2466 15.3441 12.573C15.6705 12.8994 15.8337 13.2917 15.8337 13.7501V18.3334H14.167ZM8.33366 18.3334C7.18088 18.3334 6.19824 17.9272 5.38574 17.1147C4.57324 16.3022 4.16699 15.3195 4.16699 14.1667C4.16699 13.1667 4.48296 12.2848 5.11491 11.5209C5.74685 10.757 6.54199 10.2779 7.50033 10.0834V11.7917C7.01421 11.9862 6.61491 12.2952 6.30241 12.7188C5.98991 13.1424 5.83366 13.6251 5.83366 14.1667C5.83366 14.8612 6.07671 15.4515 6.56283 15.9376C7.04894 16.4237 7.63921 16.6667 8.33366 16.6667C8.87533 16.6667 9.35796 16.5105 9.78158 16.198C10.2052 15.8855 10.5142 15.4862 10.7087 15.0001H12.417C12.2225 15.9584 11.7434 16.7536 10.9795 17.3855C10.2156 18.0174 9.33366 18.3334 8.33366 18.3334Z" fill="white"/>
</svg>
