<svg width="23" height="16" viewBox="0 0 23 16" fill="none" xmlns="http://www.w3.org/2000/svg">
<path d="M1.75 7C1.19772 7 0.75 7.44772 0.75 8C0.75 8.55228 1.19772 9 1.75 9V7ZM22.4571 8.70711C22.8476 8.31658 22.8476 7.68342 22.4571 7.29289L16.0931 0.928932C15.7026 0.538408 15.0695 0.538408 14.6789 0.928932C14.2884 1.31946 14.2884 1.95262 14.6789 2.34315L20.3358 8L14.6789 13.6569C14.2884 14.0474 14.2884 14.6805 14.6789 15.0711C15.0695 15.4616 15.7026 15.4616 16.0931 15.0711L22.4571 8.70711ZM1.75 9H21.75V7H1.75V9Z" fill="#589CF4"/>
</svg>
