<svg width="34" height="34" viewBox="0 0 34 34" fill="none" xmlns="http://www.w3.org/2000/svg">
<path fill-rule="evenodd" clip-rule="evenodd" d="M14.6993 17.0481V22.9192C14.6993 23.0045 14.7712 23.0713 14.863 23.0713H17.2077C17.2996 23.0713 17.3715 23.0045 17.3715 22.9192V16.9516H19.0731C19.157 16.9516 19.2289 16.8923 19.2369 16.8106L19.4007 15.0144C19.4086 14.9254 19.3328 14.8474 19.2369 14.8474H17.3715V13.5708C17.3715 13.2702 17.6312 13.029 17.9547 13.029H19.2648C19.3567 13.029 19.4286 12.9622 19.4286 12.8768V11.0806C19.4286 10.9953 19.3567 10.9285 19.2648 10.9285H17.048C15.7498 10.9285 14.6953 11.9082 14.6953 13.1143V14.8474H13.5209C13.4291 14.8474 13.3572 14.9142 13.3572 14.9996V16.7958C13.3572 16.8811 13.4291 16.9479 13.5209 16.9479H14.6953V17.0444L14.6993 17.0481Z" fill="white"/>
<rect x="0.5" y="0.5" width="33" height="33" rx="13.5" stroke="#BABABA"/>
</svg>
