<svg width="21" height="21" viewBox="0 0 21 21" fill="none" xmlns="http://www.w3.org/2000/svg">
<path fill-rule="evenodd" clip-rule="evenodd" d="M10.2666 18.5C14.6849 18.5 18.2666 14.9183 18.2666 10.5C18.2666 6.08172 14.6849 2.5 10.2666 2.5C5.84832 2.5 2.2666 6.08172 2.2666 10.5C2.2666 14.9183 5.84832 18.5 10.2666 18.5ZM10.2666 3.5C9.60976 3.5 8.85984 4.09025 8.24482 5.40814C8.02733 5.87419 7.83832 6.40978 7.68597 7H12.8472C12.6949 6.40978 12.5059 5.87419 12.2884 5.40814C11.6734 4.09025 10.9234 3.5 10.2666 3.5ZM7.33864 4.98526C7.06224 5.57753 6.83159 6.25696 6.65591 7H4.20308C5.03955 5.55399 6.37842 4.43497 7.98102 3.88163C7.73957 4.21222 7.52488 4.58617 7.33864 4.98526ZM6.45925 8H3.72623C3.42928 8.7764 3.2666 9.6192 3.2666 10.5C3.2666 11.3808 3.42928 12.2236 3.72623 13H6.45925C6.33383 12.2117 6.2666 11.3707 6.2666 10.5C6.2666 9.62934 6.33383 8.78832 6.45925 8ZM6.65591 14H4.20308C5.03955 15.446 6.37842 16.565 7.98102 17.1184C7.73957 16.7878 7.52488 16.4138 7.33864 16.0147C7.06224 15.4225 6.83159 14.743 6.65591 14ZM7.68597 14H12.8472C12.6949 14.5902 12.5059 15.1258 12.2884 15.5919C11.6734 16.9097 10.9234 17.5 10.2666 17.5C9.60976 17.5 8.85984 16.9097 8.24482 15.5919C8.02733 15.1258 7.83832 14.5902 7.68597 14ZM13.0604 13H7.47277C7.34005 12.2253 7.2666 11.3833 7.2666 10.5C7.2666 9.61669 7.34005 8.77472 7.47277 8H13.0604C13.1932 8.77472 13.2666 9.61669 13.2666 10.5C13.2666 11.3833 13.1932 12.2253 13.0604 13ZM13.8773 14C13.7016 14.743 13.471 15.4225 13.1946 16.0147C13.0083 16.4138 12.7936 16.7878 12.5522 17.1184C14.1548 16.565 15.4937 15.446 16.3301 14H13.8773ZM16.807 13H14.074C14.1994 12.2117 14.2666 11.3707 14.2666 10.5C14.2666 9.62934 14.1994 8.78832 14.074 8H16.807C17.1039 8.7764 17.2666 9.6192 17.2666 10.5C17.2666 11.3808 17.1039 12.2236 16.807 13ZM12.5522 3.88163C14.1548 4.43497 15.4937 5.55399 16.3301 7H13.8773C13.7016 6.25696 13.471 5.57753 13.1946 4.98526C13.0083 4.58617 12.7936 4.21222 12.5522 3.88163Z" fill="#EBEBEB"/>
</svg>
