<svg width="48" height="48" viewBox="0 0 48 48" fill="none" xmlns="http://www.w3.org/2000/svg">
<path d="M16.6556 0C17.8406 0 19.0255 0 20.2105 0C20.3018 0.018756 20.3918 0.0462647 20.4843 0.0562679C25.2967 0.605193 29.4254 2.56457 32.5965 6.24824C36.6477 10.9547 37.8327 16.349 35.7752 22.2608C33.4303 29.0017 26.7604 33.5719 19.4168 33.7833C13.4657 33.9546 7.50702 33.8208 1.55213 33.822C1.36463 33.822 1.18089 33.8083 1.00089 33.7408C-0.0240905 33.3581 -0.279086 32.0902 0.543399 31.2962C1.60838 30.2671 2.70711 29.2731 3.79209 28.2653C4.29708 27.7964 4.28708 27.8064 3.84459 27.2512C-0.0203408 22.4146 -1.07532 17.0404 1.15464 11.2411C3.16585 6.00942 7.12827 2.72337 12.3694 0.912791C13.7606 0.432638 15.2044 0.195062 16.6568 0H16.6556ZM18.4056 11.2886C21.1005 11.2886 23.7955 11.2886 26.4904 11.2886C27.5316 11.2886 28.2166 10.7372 28.2091 9.91316C28.2016 9.08665 27.5254 8.55398 26.4742 8.55398C21.1155 8.55398 15.7556 8.55398 10.397 8.55398C9.34448 8.55398 8.66824 9.08039 8.65449 9.90566C8.63949 10.7397 9.33573 11.2886 10.4132 11.2886C13.0769 11.2886 15.7406 11.2886 18.4056 11.2886ZM18.4568 14.1695C15.7144 14.1695 12.9732 14.1658 10.2307 14.172C9.31073 14.1745 8.64449 14.7685 8.65449 15.5475C8.66449 16.3164 9.31323 16.9004 10.2057 16.9016C15.6894 16.9066 21.173 16.9066 26.6567 16.9016C27.5504 16.9016 28.1979 16.3202 28.2091 15.5487C28.2204 14.7672 27.5554 14.1845 26.6354 14.1695C26.4954 14.167 26.3554 14.1695 26.2142 14.1695C23.628 14.1695 21.0418 14.1695 18.4556 14.1695H18.4568ZM18.4056 22.5209C21.1005 22.5209 23.7955 22.5209 26.4904 22.5209C27.5316 22.5209 28.2166 21.9683 28.2091 21.1442C28.2016 20.3177 27.5241 19.7863 26.4742 19.7851C21.1155 19.7851 15.7556 19.7851 10.397 19.7851C9.34448 19.7851 8.66824 20.3127 8.65449 21.1367C8.64074 21.9708 9.33573 22.5197 10.4132 22.5197C13.0769 22.5197 15.7406 22.5197 18.4056 22.5197V22.5209Z" fill="#0A0032"/>
<path d="M48 46.9862C47.6588 47.7039 47.095 47.9703 46.3025 47.9678C40.5489 47.949 34.7927 48.0766 29.0441 47.924C22.6867 47.754 17.5968 45.0256 13.9794 39.7139C13.4082 38.8749 12.9669 37.9608 12.5719 37.0243C12.4219 36.6679 12.5182 36.5554 12.8957 36.5566C14.6569 36.5667 16.4193 36.5729 18.1806 36.5566C21.2655 36.5291 24.2679 36.0365 27.1041 34.7811C32.7928 32.264 36.7702 28.1615 38.6639 22.1621C39.1602 20.5916 39.3577 18.9698 39.4302 17.328C39.4539 16.8041 39.5177 16.7791 39.9677 17.0729C44.0563 19.7363 46.8038 23.3462 47.7875 28.194C47.8675 28.5904 47.9275 28.9905 47.9975 29.3894V32.5716C47.9825 32.6316 47.9613 32.6917 47.9538 32.7517C47.5563 36.109 46.2438 39.0637 44.0413 41.622C43.8138 41.8858 43.8951 42.0334 44.1151 42.2335C45.1838 43.2088 46.2388 44.1978 47.3025 45.1794C47.5788 45.4345 47.8312 45.7071 47.9975 46.0484V46.985L48 46.9862Z" fill="#0A0032"/>
</svg>
