<svg width="56" height="56" viewBox="0 0 56 56" fill="none" xmlns="http://www.w3.org/2000/svg">
<g clip-path="url(#clip0_1237_6004)">
<path d="M56 28C56 12.5357 43.4643 0 28 0C12.5357 0 0 12.5357 0 28C0 41.9751 10.2376 53.5609 23.6237 55.6598V36.093H16.5138V28H23.6237V21.8317C23.6237 14.813 27.805 10.9387 34.2015 10.9387C37.267 10.9387 40.4693 11.4862 40.4693 11.4862V18.3763H36.9393C33.4631 18.3763 32.3763 20.5333 32.3763 22.7484V28H40.1416L38.9013 36.093H32.3763V55.6598C45.7624 53.5609 56 41.9751 56 28Z" fill="#4676ED"/>
<path d="M38.8972 36.0931L40.1375 28.0001H32.3722V22.7485C32.3722 20.5334 33.4548 18.3763 36.9351 18.3763H40.4652V11.4863C40.4652 11.4863 37.2628 10.9387 34.1973 10.9387C27.8009 10.9387 23.6196 14.8131 23.6196 21.8318V28.0001H16.5096V36.0931H23.6196V55.6599C25.0465 55.8839 26.5067 56.0001 27.9959 56.0001C29.4851 56.0001 30.9452 55.8839 32.3722 55.6599V36.0931H38.8972Z" fill="white"/>
</g>
<defs>
<clipPath id="clip0_1237_6004">
<rect width="56" height="56" fill="white"/>
</clipPath>
</defs>
</svg>
