<svg width="54" height="47" viewBox="0 0 54 47" fill="none" xmlns="http://www.w3.org/2000/svg">
<path d="M54.0002 10.0483V13.4875C53.9736 13.6758 53.9471 13.8642 53.9249 14.0526C53.6769 16.5761 53.172 19.0383 52.0028 21.3164C49.9523 25.3119 46.7282 27.6996 42.1577 28.1202C39.3543 28.3787 36.542 28.1728 33.7341 28.2253C33.3666 28.2341 33.3001 28.037 33.3001 27.7347C33.309 26.9023 33.3134 26.0655 33.3001 25.2331C33.2514 22.622 31.6216 20.7863 29.0042 20.4753C27.7154 20.3219 26.4001 20.3219 25.1158 20.4665C22.5205 20.76 20.9704 22.3766 20.7623 24.9483C20.6914 25.8114 20.718 26.6876 20.749 27.5507C20.7667 28.0632 20.6161 28.2472 20.0714 28.2385C17.8747 28.2122 15.6825 28.2341 13.4858 28.2253C8.02071 28.2078 3.6938 25.3382 1.61671 20.3438C0.358936 17.3209 -0.0307964 14.1534 0.00463379 10.9114C0.0312064 8.35286 2.12159 6.28062 4.70356 6.25871C5.35459 6.25433 6.00119 6.25871 6.65222 6.25871C9.5132 6.25871 12.3786 6.25871 15.2396 6.25871C15.8995 6.25871 15.9128 6.24119 15.9172 5.57527C15.9172 5.26421 15.9172 4.94878 15.9172 4.63772C15.9438 2.10547 18.0386 0.0113227 20.5851 0.00694161C24.8722 -0.00620157 29.1548 0.00256055 33.4419 0.00694161C34.8635 0.00694161 36.0238 0.585241 36.9627 1.61917C37.9813 2.7451 38.2161 4.09885 38.1363 5.55336C38.1009 6.24119 38.1408 6.25433 38.8361 6.25871C42.3304 6.25871 45.8247 6.26309 49.319 6.25871C50.094 6.25871 50.8115 6.44272 51.4935 6.7932C52.8443 7.49417 53.6016 8.63763 54.0002 10.0527V10.0483ZM26.9936 6.25433C29.2035 6.25433 31.4135 6.25871 33.6234 6.25433C35.0451 6.24995 34.8856 6.43834 34.8812 5.01011C34.8812 3.83161 34.2479 3.21388 33.0521 3.2095C29.0352 3.20511 25.0183 3.20511 21.0014 3.2095C19.7835 3.2095 19.1724 3.83161 19.1591 5.05392C19.1591 5.22916 19.1591 5.40003 19.1591 5.57527C19.1591 6.24119 19.1724 6.25433 19.8367 6.25433C22.2238 6.25433 24.6065 6.25433 26.9936 6.25433Z" fill="#0A0032"/>
<path d="M54.0002 45.9117C53.6326 46.6565 53.0524 47.0026 52.1933 47.0026C35.4038 46.9938 18.6143 46.9938 1.82929 46.9938C0.629091 46.9938 0.00906256 46.3805 0.00906256 45.2019C0.00906256 38.3587 0.00906256 31.5111 0.00906256 24.6679C0.00906256 24.4927 -0.0396539 24.2955 0.102067 24.1247C0.172927 24.1685 0.226072 24.1904 0.252645 24.2254C0.358935 24.3656 0.456368 24.5102 0.553801 24.6504C3.43693 28.7555 7.4494 30.8452 12.4451 31.1869C14.9872 31.3622 17.5337 31.2527 20.0802 31.2614C20.6117 31.2614 20.7667 31.4542 20.8287 31.9317C21.0679 33.8331 22.4319 35.4059 24.3274 35.7783C26.1078 36.1288 27.9369 36.1244 29.7173 35.7783C31.5951 35.419 32.9768 33.8156 33.2116 31.9273C33.2691 31.4498 33.4241 31.2351 33.96 31.2614C35.8024 31.3447 37.6448 31.1826 39.4871 31.1826C40.6652 31.1826 41.8344 31.1081 43.008 30.9854C46.5422 30.6174 49.5227 29.1585 51.9674 26.6043C52.7336 25.807 53.3403 24.8957 54.0002 24.0151V45.9117Z" fill="#0A0032"/>
<path d="M23.8226 28.1728C23.8226 27.1651 23.8181 26.1619 23.8226 25.1542C23.8314 24.1071 24.4692 23.4675 25.5232 23.4587C26.5241 23.45 27.5206 23.45 28.5215 23.4587C29.5755 23.4675 30.2177 24.1071 30.2221 25.1542C30.231 27.1826 30.231 29.2111 30.2221 31.2439C30.2221 32.2603 29.5667 32.9043 28.5481 32.9175C27.5294 32.9262 26.5153 32.9262 25.4966 32.9175C24.478 32.9087 23.8403 32.2603 23.8226 31.2483C23.8226 31.2132 23.8226 31.1782 23.8226 31.1431C23.8226 30.153 23.8226 29.1673 23.8226 28.1772V28.1728Z" fill="#0A0032"/>
</svg>
