<svg width="56" height="56" viewBox="0 0 56 56" fill="none" xmlns="http://www.w3.org/2000/svg">
<g clip-path="url(#clip0_1237_6010)">
<path d="M28 56C43.464 56 56 43.464 56 28C56 12.536 43.464 0 28 0C12.536 0 0 12.536 0 28C0 43.464 12.536 56 28 56Z" fill="#5A99EC"/>
<path d="M22.342 44.1281C36.0184 44.1281 43.4975 32.7995 43.4975 22.9726C43.4975 22.649 43.4892 22.3296 43.4768 22.0102C44.9287 20.9607 46.1897 19.6499 47.1852 18.1607C45.8537 18.7539 44.4184 19.1521 42.9168 19.3305C44.4516 18.4096 45.6297 16.9536 46.1855 15.2197C44.7503 16.07 43.1574 16.6923 41.465 17.0241C40.1085 15.5806 38.1755 14.6763 36.0392 14.6763C31.9325 14.6763 28.6015 18.0072 28.6015 22.1098C28.6015 22.6946 28.6679 23.2588 28.7965 23.8063C22.6158 23.4952 17.1361 20.5376 13.4732 16.0369C12.8344 17.1361 12.4652 18.4137 12.4652 19.7743C12.4652 22.3545 13.7761 24.6318 15.7755 25.9634C14.5559 25.926 13.411 25.59 12.4072 25.0342C12.4072 25.0632 12.4072 25.0964 12.4072 25.1296C12.4072 28.7302 14.9707 31.7376 18.3722 32.4179C17.7458 32.588 17.0904 32.6792 16.4143 32.6792C15.9372 32.6792 15.4685 32.6336 15.0164 32.5465C15.9621 35.5 18.7082 37.6487 21.9604 37.7109C19.4134 39.7062 16.211 40.8926 12.7266 40.8926C12.1251 40.8926 11.5361 40.8594 10.9512 40.7889C14.2407 42.8961 18.1482 44.1281 22.3461 44.1281" fill="white"/>
</g>
<defs>
<clipPath id="clip0_1237_6010">
<rect width="56" height="56" fill="white"/>
</clipPath>
</defs>
</svg>
