<svg width="56" height="56" viewBox="0 0 56 56" fill="none" xmlns="http://www.w3.org/2000/svg">
<g clip-path="url(#clip0_1237_6007)">
<path d="M28 56C43.464 56 56 43.464 56 28C56 12.536 43.464 0 28 0C12.536 0 0 12.536 0 28C0 43.464 12.536 56 28 56Z" fill="#DA0000"/>
<path d="M45.8865 19.0149C45.4592 17.4095 44.194 16.1444 42.5846 15.713C39.6726 14.9331 27.9997 14.9331 27.9997 14.9331C27.9997 14.9331 16.3268 14.9331 13.4148 15.713C11.8095 16.1444 10.5443 17.4054 10.1129 19.0149C9.33301 21.9269 9.33301 27.9998 9.33301 27.9998C9.33301 27.9998 9.33301 34.0727 10.1129 36.9847C10.5401 38.59 11.8053 39.8552 13.4148 40.2866C16.3268 41.0664 27.9997 41.0664 27.9997 41.0664C27.9997 41.0664 39.6726 41.0664 42.5846 40.2866C44.1899 39.8552 45.4551 38.5941 45.8865 36.9847C46.6663 34.0727 46.6663 27.9998 46.6663 27.9998C46.6663 27.9998 46.6663 21.9269 45.8865 19.0149ZM24.2663 33.5998V22.3998L33.9647 27.9998L24.2663 33.5998Z" fill="white"/>
</g>
<defs>
<clipPath id="clip0_1237_6007">
<rect width="56" height="56" fill="white"/>
</clipPath>
</defs>
</svg>
