<svg width="34" height="34" viewBox="0 0 34 34" fill="none" xmlns="http://www.w3.org/2000/svg">
<path d="M20.1934 13.1625C19.8001 13.1625 19.4781 13.4811 19.4781 13.8777C19.4781 14.2744 19.7967 14.593 20.1934 14.593C20.59 14.593 20.9086 14.2744 20.9086 13.8777C20.9086 13.4811 20.59 13.1625 20.1934 13.1625ZM17.0204 14.0777C15.3661 14.0777 14.0202 15.4236 14.0202 17.0779C14.0202 18.7322 15.3661 20.078 17.0204 20.078C18.6747 20.078 20.0205 18.7322 20.0205 17.0779C20.0205 15.4236 18.6747 14.0777 17.0204 14.0777ZM17.0204 19C15.9593 19 15.0983 18.1389 15.0983 17.0779C15.0983 16.0168 15.9593 15.1558 17.0204 15.1558C18.0814 15.1558 18.9425 16.0168 18.9425 17.0779C18.9425 18.1389 18.0814 19 17.0204 19ZM23.0714 14.5862C23.0714 12.5658 21.4341 10.9285 19.4137 10.9285H14.5864C12.5659 10.9285 10.9286 12.5658 10.9286 14.5862V19.4136C10.9286 21.434 12.5659 23.0713 14.5864 23.0713H19.4137C21.4341 23.0713 23.0714 21.434 23.0714 19.4136V14.5862ZM21.9256 19.4136C21.9256 20.8001 20.8002 21.9255 19.4137 21.9255H14.5864C13.1999 21.9255 12.0744 20.8001 12.0744 19.4136V14.5862C12.0744 13.1997 13.1999 12.0743 14.5864 12.0743H19.4137C20.8002 12.0743 21.9256 13.1997 21.9256 14.5862V19.4136Z" fill="white"/>
<rect x="0.5" y="0.5" width="33" height="33" rx="13.5" stroke="#BABABA"/>
</svg>
