<svg width="34" height="34" viewBox="0 0 34 34" fill="none" xmlns="http://www.w3.org/2000/svg">
<path d="M23.0714 18.3082V22.8652C23.0714 22.9772 22.9859 23.0713 22.8746 23.0713H20.6283C20.5214 23.0713 20.4315 22.9817 20.4315 22.8652V18.6264C20.4315 17.5107 20.0507 16.7489 19.0966 16.7489C18.3692 16.7489 17.9371 17.2597 17.7445 17.7571C17.6761 17.9363 17.6589 18.1828 17.6589 18.4292V22.8652C17.6589 22.9772 17.5734 23.0713 17.4621 23.0713H15.2158C15.1089 23.0713 15.019 22.9817 15.019 22.8652C15.0233 21.736 15.0447 16.2605 15.0233 14.9701C15.0233 14.8581 15.1089 14.764 15.2158 14.764H17.4578C17.5648 14.764 17.6547 14.8536 17.6547 14.9701V15.9424C17.6547 15.9424 17.6418 15.9603 17.6375 15.9693H17.6547V15.9424C18.0055 15.3778 18.6302 14.5713 20.0293 14.5713C21.7622 14.5713 23.0629 15.7587 23.0629 18.3082H23.0714ZM11.1254 23.0713H13.3717C13.4787 23.0713 13.5685 22.9817 13.5685 22.8652V14.9701C13.5685 14.8581 13.483 14.764 13.3717 14.764H11.1254C11.0185 14.764 10.9286 14.8536 10.9286 14.9701V22.8652C10.9286 22.9772 11.0142 23.0713 11.1254 23.0713Z" fill="white"/>
<path d="M12.1429 13.357C12.8135 13.357 13.3572 12.8134 13.3572 12.1428C13.3572 11.4721 12.8135 10.9285 12.1429 10.9285C11.4722 10.9285 10.9286 11.4721 10.9286 12.1428C10.9286 12.8134 11.4722 13.357 12.1429 13.357Z" fill="white"/>
<rect x="0.5" y="0.5" width="33" height="33" rx="13.5" stroke="#BABABA"/>
</svg>
