<svg width="18" height="18" viewBox="0 0 18 18" fill="none" xmlns="http://www.w3.org/2000/svg">
<path d="M9.50532 13.3052C9.50219 13.5133 9.37303 13.6954 9.10324 13.789C8.69908 13.9285 8.29492 14.0669 7.88555 14.1907C6.78348 14.5227 6.0564 15.2271 5.71891 16.3302C5.60016 16.7183 5.47204 17.1023 5.34912 17.4894C5.31996 17.5799 5.28141 17.6663 5.22829 17.7464C4.98454 18.1044 4.46997 18.0794 4.2658 17.6965C4.22726 17.6247 4.20122 17.5456 4.17622 17.4686C4.03143 17.0263 3.89914 16.5789 3.74185 16.1408C3.38144 15.1345 2.67103 14.4946 1.65125 14.1855C1.24605 14.0627 0.846055 13.9264 0.442936 13.7963C0.182522 13.712 0.0262743 13.5351 0.00231632 13.2625C-0.0216417 12.9815 0.140856 12.7776 0.461685 12.6714C0.817931 12.5538 1.17418 12.4321 1.53563 12.3291C2.3002 12.1116 2.91999 11.6933 3.36998 11.0356C3.57623 10.7338 3.70748 10.3967 3.81268 10.047C3.92831 9.66723 4.05331 9.29053 4.17622 8.91384C4.24184 8.71404 4.35955 8.56316 4.57309 8.50592C4.8658 8.42684 5.13558 8.55275 5.25016 8.83475C5.41475 9.24266 5.52516 9.67035 5.66683 10.0866C5.78766 10.4435 5.9137 10.7973 6.1439 11.1012C6.53869 11.6225 7.03243 12.0159 7.65951 12.2261C8.08138 12.3676 8.50533 12.5018 8.92824 12.6392C9.0272 12.6714 9.1272 12.7006 9.21678 12.7536C9.40532 12.865 9.51573 13.0242 9.50636 13.3083L9.50532 13.3052Z" fill="#0A0032"/>
<path d="M18 8.66305C17.999 8.85348 17.8771 9.01061 17.6625 9.08657C17.4104 9.17607 17.1563 9.26035 16.9 9.3384C16.5302 9.45183 16.175 9.59022 15.8719 9.84101C15.5459 10.1116 15.299 10.4373 15.1584 10.8389C15.0521 11.1438 14.9511 11.4519 14.8469 11.7578C14.8136 11.8556 14.7834 11.9555 14.7375 12.0481C14.6605 12.2052 14.5396 12.3176 14.3553 12.3114C14.1678 12.3051 14.0209 12.2115 13.9563 12.0304C13.8292 11.6777 13.7126 11.3207 13.5928 10.9649C13.3324 10.1927 12.8178 9.67451 12.0428 9.41748C11.7272 9.31342 11.4115 9.20832 11.0959 9.10531C11.0261 9.08241 10.9574 9.0564 10.8959 9.01477C10.6449 8.8462 10.6355 8.50488 10.8772 8.32382C10.9511 8.26867 11.0355 8.23745 11.122 8.20935C11.4376 8.10529 11.7542 8.00539 12.0678 7.89509C12.8261 7.6287 13.3365 7.11464 13.5917 6.35189C13.7032 6.02098 13.8157 5.69007 13.923 5.35812C14.0084 5.09276 14.1813 5.02304 14.3417 5.00847C14.5188 4.99183 14.698 5.14271 14.773 5.35916C14.8813 5.67342 14.9855 5.98872 15.0875 6.30402C15.3459 7.1032 15.8719 7.63911 16.6667 7.9107C16.9729 8.01476 17.2833 8.10945 17.5896 8.21351C17.7854 8.28011 17.9521 8.38001 17.9906 8.60894C17.9938 8.62975 17.9969 8.65161 17.9979 8.66409L18 8.66305Z" fill="#0A0032"/>
<path d="M7.63868 0.00112139C7.74284 0.00528378 7.84805 0.0750038 7.91784 0.204038C8.02096 0.396548 8.06263 0.609871 8.13242 0.812787C8.22513 1.08126 8.30117 1.35806 8.45741 1.60052C8.73866 2.03549 9.11678 2.34663 9.61469 2.50896C9.92198 2.60886 10.2272 2.71708 10.5345 2.8201C10.6616 2.86276 10.7501 2.94601 10.797 3.06984C10.8845 3.30086 10.7605 3.51314 10.4886 3.60367C10.1939 3.70148 9.89802 3.79618 9.60427 3.89608C8.91262 4.13021 8.46575 4.6068 8.23242 5.29048C8.14284 5.55167 8.06367 5.81598 7.97617 6.07717C7.92826 6.21869 7.86263 6.35293 7.71055 6.40808C7.49284 6.4882 7.28243 6.3727 7.19493 6.124C7.11056 5.88466 7.03764 5.64012 6.95535 5.39974C6.8741 5.16352 6.79181 4.92835 6.64806 4.71815C6.3439 4.27485 5.92203 4.00222 5.41683 3.84405C5.18662 3.77225 4.95642 3.69524 4.72725 3.62032C4.6908 3.60783 4.6533 3.59638 4.61788 3.57974C4.45955 3.50481 4.36163 3.37786 4.36476 3.20512C4.36684 3.02822 4.47726 2.90647 4.63871 2.84715C4.91059 2.7483 5.18454 2.65673 5.46162 2.57244C6.01578 2.40178 6.43453 2.0563 6.7314 1.56826C6.89806 1.29458 6.96785 0.977202 7.07931 0.67855C7.13243 0.537029 7.17097 0.390305 7.22722 0.250865C7.29389 0.0843692 7.43243 -0.003041 7.6418 8.07947e-05L7.63868 0.00112139Z" fill="#0A0032"/>
</svg>
