<svg width="22" height="20" viewBox="0 0 22 20" fill="none" xmlns="http://www.w3.org/2000/svg">
<path d="M16 8.80445C16 8.45883 16 8.28603 16.052 8.13197C16.2032 7.68444 16.6018 7.51076 17.0011 7.32888C17.45 7.12442 17.6744 7.02219 17.8968 7.0042C18.1493 6.98378 18.4022 7.03818 18.618 7.15929C18.9041 7.31984 19.1036 7.62493 19.3079 7.87302C20.2513 9.01885 20.7229 9.59176 20.8955 10.2236C21.0348 10.7334 21.0348 11.2666 20.8955 11.7764C20.6438 12.6979 19.8485 13.4704 19.2598 14.1854C18.9587 14.5511 18.8081 14.734 18.618 14.8407C18.4022 14.9618 18.1493 15.0162 17.8968 14.9958C17.6744 14.9778 17.45 14.8756 17.0011 14.6711C16.6018 14.4892 16.2032 14.3156 16.052 13.868C16 13.714 16 13.5412 16 13.1955V8.80445Z" stroke="#141B34" stroke-width="1.5"/>
<path d="M6 8.80462C6 8.36937 5.98778 7.97821 5.63591 7.6722C5.50793 7.5609 5.33825 7.48361 4.99891 7.32905C4.55001 7.12458 4.32556 7.02235 4.10316 7.00436C3.43591 6.9504 3.07692 7.40581 2.69213 7.87318C1.74875 9.01901 1.27706 9.59193 1.10446 10.2237C0.965178 10.7336 0.965178 11.2668 1.10446 11.7766C1.3562 12.6981 2.15152 13.4705 2.74021 14.1856C3.11129 14.6363 3.46577 15.0475 4.10316 14.996C4.32556 14.978 4.55001 14.8757 4.99891 14.6713C5.33825 14.5167 5.50793 14.4394 5.63591 14.3281C5.98778 14.0221 6 13.631 6 13.1957V8.80462Z" stroke="#141B34" stroke-width="1.5"/>
<path d="M4 7C4 3.68629 7.13401 1 11 1C14.866 1 18 3.68629 18 7" stroke="#141B34" stroke-width="1.5" stroke-linecap="square" stroke-linejoin="round"/>
<path d="M18 15V15.8C18 17.5673 16.2091 19 14 19H12" stroke="#141B34" stroke-width="1.5" stroke-linecap="round" stroke-linejoin="round"/>
</svg>
