<svg width="34" height="34" viewBox="0 0 34 34" fill="none" xmlns="http://www.w3.org/2000/svg">
<path d="M23.0141 13.3421C22.6286 13.5177 22.205 13.6208 21.789 13.6933C21.9874 13.6589 22.2775 13.304 22.3958 13.1589C22.5752 12.9376 22.7202 12.6857 22.8042 12.4147C22.8157 12.3918 22.8233 12.3651 22.8042 12.3498C22.7775 12.3384 22.7622 12.346 22.7393 12.3536C22.2737 12.6017 21.7928 12.7849 21.2814 12.9109C21.2394 12.9223 21.2088 12.9109 21.1821 12.8841C21.1401 12.8345 21.0982 12.7925 21.0562 12.7544C20.8424 12.5712 20.6096 12.4261 20.3501 12.3231C20.0104 12.1857 19.6364 12.1246 19.2661 12.1475C18.9074 12.1704 18.5562 12.2735 18.2395 12.4376C17.9227 12.6055 17.6364 12.8345 17.4112 13.1131C17.1784 13.4032 17.0067 13.7429 16.9151 14.1055C16.8311 14.4528 16.8349 14.8001 16.8883 15.1513C16.896 15.2085 16.8883 15.2161 16.8387 15.2085C14.8388 14.9108 13.1785 14.1933 11.8312 12.659C11.774 12.5941 11.7396 12.5941 11.6938 12.6628C11.1061 13.5444 11.3923 14.9642 12.1251 15.6627C12.2244 15.7543 12.3236 15.8497 12.4343 15.9337C12.3961 15.9413 11.9038 15.8879 11.4687 15.6627C11.4114 15.6245 11.3809 15.6474 11.3771 15.7123C11.3732 15.8077 11.3771 15.8955 11.3923 15.9986C11.5068 16.8955 12.1251 17.7237 12.9762 18.0443C13.0755 18.0863 13.19 18.1244 13.2968 18.1435C13.1022 18.1855 12.9037 18.216 12.3503 18.1741C12.2816 18.1626 12.2549 18.197 12.2816 18.2619C12.6976 19.3992 13.5984 19.7351 14.2739 19.9297C14.3655 19.945 14.4533 19.945 14.5449 19.9679C14.5411 19.9755 14.5335 19.9755 14.5296 19.9832C14.3045 20.3229 13.5297 20.5786 13.1709 20.7045C12.5144 20.9335 11.8007 21.0366 11.1061 20.9679C10.9954 20.9526 10.9725 20.9526 10.942 20.9679C10.9114 20.987 10.9381 21.0137 10.9725 21.0404C11.1137 21.132 11.2549 21.216 11.4038 21.2961C11.8427 21.5289 12.3045 21.7159 12.7854 21.8495C15.2663 22.5327 18.0601 22.0327 19.9226 20.1816C21.3844 18.7275 21.8958 16.7237 21.8958 14.72C21.8958 14.6398 21.9874 14.5978 22.0447 14.5559C22.4264 14.2696 22.7279 13.9261 23.0103 13.5444C23.0752 13.4605 23.0714 13.3841 23.0714 13.3498V13.3383C23.0714 13.3078 23.0752 13.3154 23.0256 13.3383L23.0141 13.3421Z" fill="white"/>
<path fill-rule="evenodd" clip-rule="evenodd" d="M14.9341 22.1088C14.9341 22.0897 15.1478 22.1088 14.9341 22.1088C14.9341 22.0974 14.9608 22.1088 14.9341 22.1088Z" fill="white"/>
<path fill-rule="evenodd" clip-rule="evenodd" d="M19.2278 12.1548C19.2278 12.1548 19.1973 12.1662 19.1782 12.1548H19.2278Z" fill="white"/>
<rect x="0.5" y="0.5" width="33" height="33" rx="13.5" stroke="#BABABA"/>
</svg>
